<svg width="40" height="40" viewBox="0 0 40 40" fill="none" xmlns="http://www.w3.org/2000/svg">
<path d="M18.25 1.58771C19.3329 0.962498 20.6671 0.962498 21.75 1.58771L35.0705 9.27831C36.1534 9.90353 36.8205 11.059 36.8205 12.3094V27.6906C36.8205 28.941 36.1534 30.0965 35.0705 30.7217L21.75 38.4123C20.6671 39.0375 19.3329 39.0375 18.25 38.4123L4.92949 30.7217C3.84659 30.0965 3.17949 28.941 3.17949 27.6906V12.3094C3.17949 11.059 3.84659 9.90353 4.92949 9.27831L18.25 1.58771Z" stroke="white"/>
<path d="M21.4951 12C20.4074 12 19.3643 12.4272 18.5952 13.1876C17.8262 13.948 17.3941 14.9794 17.3941 16.0548V18.3123H15.1995C15.0893 18.3123 15 18.4006 15 18.5096V21.4904C15 21.5994 15.0893 21.6877 15.1995 21.6877H17.3941V27.8027C17.3941 27.9117 17.4834 28 17.5936 28H20.6084C20.7186 28 20.8079 27.9117 20.8079 27.8027V21.6877H23.0219C23.1134 21.6877 23.1932 21.6261 23.2155 21.5383L23.9691 18.5574C24.0006 18.4329 23.9054 18.3123 23.7756 18.3123H20.8079V16.0548C20.8079 15.8746 20.8803 15.7018 21.0092 15.5743C21.138 15.4469 21.3128 15.3753 21.4951 15.3753H23.8005C23.9107 15.3753 24 15.287 24 15.1781V12.1973C24 12.0883 23.9107 12 23.8005 12H21.4951Z" fill="#FF8C00"/>
</svg>
