<svg width="40" height="40" viewBox="0 0 40 40" fill="none" xmlns="http://www.w3.org/2000/svg">
<path d="M18.25 1.58771C19.3329 0.962498 20.6671 0.962498 21.75 1.58771L35.0705 9.27831C36.1534 9.90353 36.8205 11.059 36.8205 12.3094V27.6906C36.8205 28.941 36.1534 30.0965 35.0705 30.7217L21.75 38.4123C20.6671 39.0375 19.3329 39.0375 18.25 38.4123L4.92949 30.7217C3.84659 30.0965 3.17949 28.941 3.17949 27.6906V12.3094C3.17949 11.059 3.84659 9.90353 4.92949 9.27831L18.25 1.58771Z" stroke="white"/>
<path d="M24.272 14.768C24.0822 14.768 23.8966 14.8243 23.7386 14.9298C23.5808 15.0353 23.4578 15.1852 23.385 15.3606C23.3124 15.536 23.2934 15.7291 23.3305 15.9153C23.3675 16.1015 23.4589 16.2726 23.5932 16.4068C23.7274 16.5411 23.8985 16.6325 24.0847 16.6696C24.271 16.7066 24.4639 16.6876 24.6394 16.6149C24.8148 16.5423 24.9647 16.4192 25.0702 16.2613C25.1757 16.1035 25.232 15.9179 25.232 15.728C25.232 15.4734 25.1309 15.2292 24.9508 15.0492C24.7708 14.8691 24.5266 14.768 24.272 14.768ZM27.952 16.704C27.9365 16.0402 27.8122 15.3835 27.584 14.76C27.3806 14.2265 27.064 13.7434 26.656 13.344C26.2598 12.9339 25.7757 12.6193 25.24 12.424C24.6182 12.1889 23.9606 12.0618 23.296 12.048C22.448 12 22.176 12 20 12C17.824 12 17.552 12 16.704 12.048C16.0393 12.0618 15.3819 12.1889 14.76 12.424C14.2253 12.6213 13.7415 12.9356 13.344 13.344C12.9339 13.7401 12.6193 14.2244 12.424 14.76C12.1889 15.3819 12.0618 16.0393 12.048 16.704C12 17.552 12 17.824 12 20C12 22.176 12 22.448 12.048 23.296C12.0618 23.9606 12.1889 24.6181 12.424 25.24C12.6193 25.7756 12.9339 26.2598 13.344 26.656C13.7415 27.0643 14.2253 27.3786 14.76 27.576C15.3819 27.811 16.0393 27.9382 16.704 27.952C17.552 28 17.824 28 20 28C22.176 28 22.448 28 23.296 27.952C23.9606 27.9382 24.6182 27.811 25.24 27.576C25.7757 27.3806 26.2598 27.0661 26.656 26.656C27.0658 26.2581 27.3826 25.7746 27.584 25.24C27.8122 24.6165 27.9365 23.9598 27.952 23.296C27.952 22.448 28 22.176 28 20C28 17.824 28 17.552 27.952 16.704ZM26.512 23.2C26.5062 23.7078 26.4142 24.211 26.24 24.688C26.1122 25.0362 25.9071 25.3507 25.64 25.608C25.3805 25.8724 25.0666 26.0771 24.72 26.208C24.243 26.3822 23.7398 26.4742 23.232 26.48C22.432 26.52 22.136 26.528 20.032 26.528C17.928 26.528 17.632 26.528 16.832 26.48C16.3047 26.4898 15.7797 26.4086 15.28 26.24C14.9486 26.1025 14.6491 25.8982 14.4 25.64C14.1345 25.383 13.9319 25.0682 13.808 24.72C13.6127 24.2361 13.5044 23.7215 13.488 23.2C13.488 22.4 13.44 22.104 13.44 20C13.44 17.896 13.44 17.6 13.488 16.8C13.4916 16.2808 13.5864 15.7664 13.768 15.28C13.9088 14.9423 14.125 14.6413 14.4 14.4C14.643 14.1249 14.9434 13.9065 15.28 13.76C15.7676 13.584 16.2816 13.4921 16.8 13.488C17.6 13.488 17.896 13.44 20 13.44C22.104 13.44 22.4 13.44 23.2 13.488C23.7078 13.4938 24.211 13.5858 24.688 13.76C25.0515 13.8949 25.3778 14.1143 25.64 14.4C25.9022 14.6457 26.107 14.9462 26.24 15.28C26.4178 15.7671 26.5098 16.2814 26.512 16.8C26.552 17.6 26.56 17.896 26.56 20C26.56 22.104 26.552 22.4 26.512 23.2ZM20 15.896C19.1886 15.8976 18.396 16.1396 17.7221 16.5915C17.0483 17.0434 16.5235 17.685 16.2141 18.435C15.9047 19.185 15.8246 20.01 15.9838 20.8055C16.1431 21.6011 16.5346 22.3316 17.1089 22.9048C17.6831 23.4779 18.4144 23.868 19.2103 24.0257C20.0062 24.1834 20.831 24.1017 21.5804 23.7908C22.3298 23.48 22.9703 22.9539 23.4209 22.2792C23.8715 21.6045 24.112 20.8114 24.112 20C24.113 19.4601 24.0074 18.9253 23.801 18.4264C23.5946 17.9274 23.2917 17.4742 22.9095 17.0928C22.5274 16.7114 22.0735 16.4093 21.5742 16.2039C21.0749 15.9985 20.5399 15.8939 20 15.896ZM20 22.664C19.4731 22.664 18.9581 22.5078 18.52 22.215C18.0819 21.9223 17.7404 21.5062 17.5388 21.0194C17.3372 20.5326 17.2844 19.997 17.3872 19.4803C17.49 18.9635 17.7437 18.4888 18.1163 18.1163C18.4888 17.7437 18.9635 17.49 19.4803 17.3872C19.997 17.2844 20.5327 17.3372 21.0194 17.5388C21.5062 17.7404 21.9223 18.0819 22.215 18.52C22.5078 18.958 22.664 19.4731 22.664 20C22.664 20.3498 22.5951 20.6962 22.4612 21.0194C22.3274 21.3426 22.1311 21.6363 21.8838 21.8838C21.6363 22.1311 21.3427 22.3274 21.0194 22.4612C20.6962 22.5951 20.3498 22.664 20 22.664Z" fill="#FF8C00"/>
</svg>
