<svg width="40" height="40" viewBox="0 0 40 40" fill="none" xmlns="http://www.w3.org/2000/svg">
<path d="M18.25 1.58771C19.3329 0.962498 20.6671 0.962498 21.75 1.58771L35.0705 9.27831C36.1534 9.90353 36.8205 11.059 36.8205 12.3094V27.6906C36.8205 28.941 36.1534 30.0965 35.0705 30.7217L21.75 38.4123C20.6671 39.0375 19.3329 39.0375 18.25 38.4123L4.92949 30.7217C3.84659 30.0965 3.17949 28.941 3.17949 27.6906V12.3094C3.17949 11.059 3.84659 9.90353 4.92949 9.27831L18.25 1.58771Z" stroke="white"/>
<path d="M13.8133 12C12.8119 12 12 12.7908 12 13.7662C12 14.7417 12.8119 15.5325 13.8133 15.5325C14.8148 15.5325 15.6267 14.7417 15.6267 13.7662C15.6267 12.7908 14.8148 12 13.8133 12Z" fill="#FF8C00"/>
<path d="M12.1067 16.987C12.0478 16.987 12 17.0335 12 17.0909V27.8961C12 27.9535 12.0478 28 12.1067 28H15.52C15.5789 28 15.6267 27.9535 15.6267 27.8961V17.0909C15.6267 17.0335 15.5789 16.987 15.52 16.987H12.1067Z" fill="#FF8C00"/>
<path d="M17.6533 16.987C17.5944 16.987 17.5467 17.0335 17.5467 17.0909V27.8961C17.5467 27.9535 17.5944 28 17.6533 28H21.0667C21.1256 28 21.1733 27.9535 21.1733 27.8961V22.0779C21.1733 21.6646 21.3419 21.2682 21.642 20.9759C21.942 20.6837 22.349 20.5195 22.7733 20.5195C23.1977 20.5195 23.6046 20.6837 23.9047 20.9759C24.2048 21.2682 24.3733 21.6646 24.3733 22.0779V27.8961C24.3733 27.9535 24.4211 28 24.48 28H27.8933C27.9522 28 28 27.9535 28 27.8961V20.7316C28 18.7146 26.1989 17.1366 24.1385 17.3191C23.5031 17.3753 22.8748 17.5292 22.2882 17.7741L21.1733 18.2395V17.0909C21.1733 17.0335 21.1256 16.987 21.0667 16.987H17.6533Z" fill="#FF8C00"/>
</svg>
