<svg width="34" height="36" viewBox="0 0 34 36" fill="none" xmlns="http://www.w3.org/2000/svg">
<g filter="url(#filter0_d_1_45)">
<path d="M14.25 2.16506C15.9517 1.18258 18.0483 1.18258 19.75 2.16506L25.8744 5.70096C27.5761 6.68344 28.6244 8.49914 28.6244 10.4641V17.5359C28.6244 19.5009 27.5761 21.3166 25.8744 22.299L19.75 25.8349C18.0483 26.8174 15.9517 26.8174 14.25 25.8349L8.12565 22.299C6.42394 21.3166 5.37564 19.5009 5.37564 17.5359V10.4641C5.37564 8.49914 6.42394 6.68344 8.12564 5.70096L14.25 2.16506Z" stroke="white"/>
<path d="M15.375 13C15.375 12.1025 16.1025 11.375 17 11.375C17.8975 11.375 18.625 12.1025 18.625 13C18.625 13.8975 17.8975 14.625 17 14.625C16.1025 14.625 15.375 13.8975 15.375 13Z" fill="#FF8C00"/>
<path fill-rule="evenodd" clip-rule="evenodd" d="M12.8868 12.4387C13.0586 10.3542 14.8005 8.75 16.892 8.75H17.108C19.1995 8.75 20.9414 10.3542 21.1133 12.4387C21.2058 13.561 20.8591 14.6754 20.1463 15.5472L17.7497 18.4781C17.3622 18.9519 16.6378 18.9519 16.2503 18.4781L13.8538 15.5472C13.1409 14.6754 12.7943 13.561 12.8868 12.4387ZM17 10.625C15.6883 10.625 14.625 11.6883 14.625 13C14.625 14.3117 15.6883 15.375 17 15.375C18.3117 15.375 19.375 14.3117 19.375 13C19.375 11.6883 18.3117 10.625 17 10.625Z" fill="#FF8C00"/>
</g>
<defs>
<filter id="filter0_d_1_45" x="0.875671" y="0.928223" width="32.2487" height="34.1436" filterUnits="userSpaceOnUse" color-interpolation-filters="sRGB">
<feFlood flood-opacity="0" result="BackgroundImageFix"/>
<feColorMatrix in="SourceAlpha" type="matrix" values="0 0 0 0 0 0 0 0 0 0 0 0 0 0 0 0 0 0 127 0" result="hardAlpha"/>
<feOffset dy="4"/>
<feGaussianBlur stdDeviation="2"/>
<feComposite in2="hardAlpha" operator="out"/>
<feColorMatrix type="matrix" values="0 0 0 0 0 0 0 0 0 0 0 0 0 0 0 0 0 0 0.25 0"/>
<feBlend mode="normal" in2="BackgroundImageFix" result="effect1_dropShadow_1_45"/>
<feBlend mode="normal" in="SourceGraphic" in2="effect1_dropShadow_1_45" result="shape"/>
</filter>
</defs>
</svg>
