<svg width="41" height="40" viewBox="0 0 41 40" fill="none" xmlns="http://www.w3.org/2000/svg">
<path d="M16.5 2.3094C18.9752 0.880338 22.0248 0.880338 24.5 2.3094L33.8205 7.6906C36.2957 9.11966 37.8205 11.7607 37.8205 14.6188V25.3812C37.8205 28.2393 36.2957 30.8803 33.8205 32.3094L24.5 37.6906C22.0248 39.1197 18.9752 39.1197 16.5 37.6906L7.17949 32.3094C4.70428 30.8803 3.17949 28.2393 3.17949 25.3812V14.6188C3.17949 11.7607 4.70428 9.11966 7.17949 7.6906L16.5 2.3094Z" fill="#001B21"/>
<path d="M22.0067 12.8975C22.0067 12.4026 21.6196 12 21.1438 12H19.8562C19.3803 12 18.9932 12.4026 18.9932 12.8975V14.2393H22.0067V12.8975ZM20.6264 17.615L25.6282 18.9744V15.6196C25.6282 15.4319 25.4814 15.2792 25.3009 15.2792H15.6991C15.5186 15.2792 15.3718 15.4319 15.3718 15.6196V18.9744L20.3736 17.615C20.4565 17.5926 20.5435 17.5926 20.6264 17.615Z" fill="#FF8C00"/>
<path d="M28.0312 26.8917C27.5138 26.8917 27.2805 26.7543 26.985 26.5804C26.8463 26.4987 26.7 26.4126 26.5254 26.3393C26.2831 26.2374 25.9861 26.1602 25.5791 26.1535L27.2953 21.0463C27.3333 20.925 27.303 20.8241 27.2813 20.7745C27.2595 20.7245 27.2069 20.6356 27.0996 20.6025L20.4999 18.5641L13.9003 20.6025C13.793 20.6356 13.7404 20.7245 13.7186 20.7745C13.697 20.8241 13.6666 20.9252 13.7047 21.0465L15.4171 26.1535C15.0102 26.1608 14.7136 26.2385 14.4714 26.3407C14.2983 26.4137 14.1529 26.4993 14.0151 26.5804C13.7196 26.7543 13.4862 26.8918 12.9687 26.8918C12.7099 26.8918 12.5 27.1398 12.5 27.4458C12.5 27.7519 12.7099 28 12.9687 28C13.7066 28 14.0925 27.7729 14.4329 27.5725C14.5656 27.4944 14.6859 27.4239 14.8248 27.3696C14.9954 27.303 15.1941 27.2612 15.4793 27.2612C15.5444 27.2612 15.6049 27.2634 15.6617 27.2676C16.0564 27.2964 16.2673 27.4205 16.5256 27.5725C16.8661 27.7729 17.2519 28 17.9898 28C18.7276 28 19.1135 27.7729 19.4539 27.5725C19.7494 27.3986 19.9828 27.2612 20.5002 27.2612C21.0175 27.2612 21.2509 27.3986 21.5464 27.5725C21.8868 27.7729 22.2727 28 23.0105 28C23.7484 28 24.1342 27.7729 24.4746 27.5725C24.7338 27.42 24.9453 27.2956 25.3423 27.2673C25.4018 27.2631 25.4613 27.2611 25.5209 27.2612C25.803 27.2612 26.0004 27.3022 26.1697 27.3676C26.311 27.4221 26.4327 27.4934 26.5671 27.5725C26.9075 27.7729 27.2934 28 28.0312 28C28.2901 28 28.5 27.7519 28.5 27.4459C28.5 27.1399 28.2901 26.8917 28.0312 26.8917ZM16.1663 21.3998L20.3814 20.0979C20.4591 20.0739 20.5407 20.0739 20.6185 20.0979L24.8336 21.3998C25.084 21.4771 25.2341 21.7799 25.1686 22.076C25.1136 22.3251 24.9235 22.4901 24.7154 22.4901C24.6753 22.4901 24.6354 22.484 24.5966 22.472L20.4999 21.2067L16.4033 22.472C16.1528 22.5494 15.8967 22.3721 15.8313 22.076C15.7658 21.7799 15.9158 21.4771 16.1663 21.3998Z" fill="#FF8C00"/>
</svg>
