<svg width="40" height="40" viewBox="0 0 40 40" fill="none" xmlns="http://www.w3.org/2000/svg">
<path d="M18.25 1.58771C19.3329 0.962498 20.6671 0.962498 21.75 1.58771L35.0705 9.27831C36.1534 9.90353 36.8205 11.059 36.8205 12.3094V27.6906C36.8205 28.941 36.1534 30.0965 35.0705 30.7217L21.75 38.4123C20.6671 39.0375 19.3329 39.0375 18.25 38.4123L4.92949 30.7217C3.84659 30.0965 3.17949 28.941 3.17949 27.6906V12.3094C3.17949 11.059 3.84659 9.90353 4.92949 9.27831L18.25 1.58771Z" stroke="white"/>
<path d="M24.6009 12H27.0544L21.6943 18.7774L28 28H23.0627L19.1957 22.4066L14.7709 28H12.316L18.049 20.7508L12 12H17.0626L20.5581 17.1126L24.6009 12ZM23.7399 26.3754H25.0993L16.3239 13.5393H14.8651L23.7399 26.3754Z" fill="#FF8C00"/>
</svg>
